<svg width="20" height="20" viewBox="0 0 20 20" fill="none" xmlns="http://www.w3.org/2000/svg">
<path d="M0.25 9.9991C0.25 9.24238 0.332778 8.5058 0.489535 7.79814C1.52877 9.46651 2.9817 10.8442 4.70303 11.7802C4.89642 13.2741 5.31649 14.849 5.91754 16.3018C6.4287 17.5374 7.08647 18.7223 7.87759 19.7033C3.52106 18.7169 0.25 14.756 0.25 9.9991Z" fill="#292556"/>
<path d="M4.58273 9.95084C3.09625 8.93644 1.89759 7.51559 1.14064 5.84136C2.39913 3.0582 4.8817 0.973215 7.87759 0.294854C7.08647 1.27585 6.4287 2.46081 5.91754 3.69637C5.07721 5.7276 4.59064 7.99732 4.58273 9.95084Z" fill="#292556"/>
<path d="M7.30361 4.26979C8.00048 2.58532 8.9366 1.14333 9.99874 0.249756C11.0609 1.14333 11.997 2.58532 12.6939 4.26979C13.4763 6.16097 13.9149 8.2569 13.9149 9.9991C13.9149 10.2598 13.905 10.5284 13.8857 10.8031C12.6941 11.3319 11.3793 11.6248 9.99876 11.6248C8.61815 11.6248 7.3034 11.3319 6.11178 10.8031C6.09246 10.5284 6.08264 10.2598 6.08264 9.9991C6.08264 8.2569 6.52122 6.16097 7.30361 4.26979Z" fill="#292556"/>
<path d="M9.99876 13.1248C11.2808 13.1248 12.512 12.9068 13.6589 12.5056C13.4524 13.5797 13.1255 14.6852 12.6939 15.7284C11.997 17.4129 11.0609 18.8549 9.99874 19.7484C8.9366 18.8549 8.00048 17.4129 7.30361 15.7284C6.87203 14.6852 6.54507 13.5797 6.33862 12.5056C7.4855 12.9068 8.71671 13.1248 9.99876 13.1248Z" fill="#292556"/>
<path d="M14.0799 16.3018C13.5688 17.5374 12.911 18.7223 12.1199 19.7033C16.4764 18.7169 19.7475 14.756 19.7475 9.9991C19.7475 9.24239 19.6647 8.50582 19.508 7.79816C18.4687 9.46654 17.0158 10.8442 15.2944 11.7803C15.1011 13.2741 14.681 14.849 14.0799 16.3018Z" fill="#292556"/>
<path d="M15.4148 9.95085C16.9012 8.93645 18.0999 7.5156 18.8569 5.84139C17.5984 3.05822 15.1158 0.973218 12.1199 0.294854C12.911 1.27585 13.5688 2.46081 14.0799 3.69637C14.9203 5.72761 15.4069 7.99733 15.4148 9.95085Z" fill="#292556"/>
</svg>
